HIERARCHY
ROOT ui
{
	 OFFSET 0 0 0
	 CHANNELS 3 XPosition YPosition Z Position
	 EndSite
	 {
	 OFFSET 0 -1 0
	 }
}
ROOT li
{
	 OFFSET 0 0 0
	 CHANNELS 3 XPosition YPosition Z Position
	 EndSite
	 {
	 OFFSET 0 -1 0
	 }
}
ROOT ul
{
	 OFFSET 0 0 0
	 CHANNELS 3 XPosition YPosition Z Position
	 EndSite
	 {
	 OFFSET 0 -1 0
	 }
}
ROOT ll
{
	 OFFSET 0 0 0
	 CHANNELS 3 XPosition YPosition Z Position
	 EndSite
	 {
	 OFFSET 0 -1 0
	 }
}
ROOT tt
{
	 OFFSET 0 0 0
	 CHANNELS 3 XPosition YPosition Z Position
	 EndSite
	 {
	 OFFSET 0 -1 0
	 }
}
ROOT tb
{
	 OFFSET 0 0 0
	 CHANNELS 3 XPosition YPosition Z Position
	 EndSite
	 {
	 OFFSET 0 -1 0
	 }
}
ROOT td
{
	 OFFSET 0 0 0
	 CHANNELS 3 XPosition YPosition Z Position
	 EndSite
	 {
	 OFFSET 0 -1 0
	 }
}
ROOT v
{
	 OFFSET 0 0 0
	 CHANNELS 3 XPosition YPosition Z Position
	 EndSite
	 {
	 OFFSET 0 -1 0
	 }
}
ROOT bn
{
	 OFFSET 0 0 0
	 CHANNELS 3 XPosition YPosition Z Position
	 EndSite
	 {
	 OFFSET 0 -1 0
	 }
}
MOTION
Frames: 30
Frame Time: 0.002
0.022914508819580078	0.002736299991607666	0		0.5202617797851562	-2.489576904296875	0		-1.0591881103515626	0.0010612200498580932	0		-0.636724365234375	-2.481329345703125	0		2.080791015625	-1.481717041015625	0		3.59730126953125	-0.5563212280273437	0		4.30507421875	0.16633932495117187	0		5.916861328125	0.36818576049804685	0		-0.11076436614990234	5.957833984375	0		
0.01192431640625	-0.006884259223937988	0		0.5203810424804688	-2.48933642578125	0		-1.0541180419921874	-0.00375122594833374	0		-0.7034644775390625	-2.469258056640625	0		2.0380048828125	-1.473955322265625	0		3.62015771484375	-0.578378173828125	0		4.3052822265625	0.17256170654296876	0		5.91719287109375	0.384397216796875	0		-0.15880715942382811	5.94167041015625	0		
0.018325597763061523	0.0072817888259887695	0		0.522634521484375	-2.486122802734375	0		-1.0538887939453125	-0.0035047690868377683	0		-0.6581771850585938	-2.463568359375	0		2.080964599609375	-1.4952528076171876	0		3.63572802734375	-0.5503424072265625	0		4.3246591796875	0.18454769897460938	0		5.92232470703125	0.37654733276367186	0		-0.14342573547363283	5.9517265625	0		
0.02359108543395996	0.003458688020706177	0		0.5239620361328124	-2.483899658203125	0		-1.041685546875	-0.01240852165222168	0		-0.6897854614257812	-2.455932861328125	0		2.1230966796875	-1.50954150390625	0		3.6428056640625	-0.5692068481445313	0		4.3349755859375	0.18464321899414063	0		5.92183935546875	0.39276766967773435	0		-0.1771527099609375	5.94638525390625	0		
0.028914199829101563	-0.0013682719469070436	0		0.521274169921875	-2.488630126953125	0		-1.0453494873046876	-0.016119613647460937	0		-0.65141455078125	-2.456163818359375	0		2.11635205078125	-1.5192298583984376	0		3.674370849609375	-0.5543727416992188	0		4.34434912109375	0.18374822998046875	0		5.92202880859375	0.37697586059570315	0		-0.12275643157958985	5.94495458984375	0		
-0.044645618438720704	-2.2652600705623627E-4	0		0.5118102111816406	-2.47928076171875	0		-1.0430137939453126	-0.023910486221313476	0		-0.686950439453125	-2.452488525390625	0		2.151691162109375	-1.5264410400390624	0		3.678864501953125	-0.5492088623046875	0		4.35495703125	0.1978360595703125	0		5.9265634765625	0.38513018798828125	0		-0.10813787078857422	5.95801025390625	0		
0.013749729156494141	-0.005720308780670166	0		0.5221510620117188	-2.488183837890625	0		-1.04166357421875	-0.03269695281982422	0		-0.680424072265625	-2.446339111328125	0		2.17286181640625	-1.549484619140625	0		3.679323974609375	-0.54900048828125	0		4.36540625	0.19692001342773438	0		5.9270263671875	0.3853306274414062	0		-0.1407391357421875	5.95164013671875	0		
-0.022705989837646483	9.486650228500367E-4	0		0.49969915771484374	-2.480689208984375	0		-1.032110595703125	-0.025592731475830077	0		-0.6738780517578125	-2.43919873046875	0		2.18226220703125	-1.55438916015625	0		3.7005537109375	-0.5680565795898438	0		4.37003515625	0.21007028198242186	0		5.91949560546875	0.38562429809570314	0		-0.13730343627929686	5.94781640625	0		
0.025794185638427735	0.004558772087097168	0		0.5530812377929688	-2.4861416015625	0		-1.040741943359375	-0.03227532958984375	0		-0.6714055786132812	-2.437018798828125	0		2.180675537109375	-1.5571669921875	0		3.719425048828125	-0.5340881958007813	0		4.39548876953125	0.2099539794921875	0		5.933048828125	0.3936505126953125	0		-0.136833251953125	5.94802001953125	0		
-0.05376359176635742	0.0067388458251953125	0		0.5255132446289063	-2.48460498046875	0		-1.0443673095703125	-0.03603076171875	0		-0.6709879150390625	-2.436824951171875	0		2.212981689453125	-1.566374755859375	0		3.7085517578125	-0.5577676391601563	0		4.3959130859375	0.21013601684570313	0		5.928375	0.38589016723632813	0		-0.1383572998046875	5.95123681640625	0		
0.020410348892211914	-0.009994132041931152	0		0.5498202514648437	-2.489722900390625	0		-1.0520760498046875	-0.04274889373779297	0		-0.6706171875	-2.4366435546875	0		2.2113056640625	-1.5701759033203124	0		3.71702587890625	-0.5496972045898437	0		4.41537646484375	0.21706976318359375	0		5.92465478515625	0.3781041259765625	0		-0.15212376403808595	5.9385908203125	0		
-0.060154075622558596	1.710910052061081E-4	0		0.4971966857910156	-2.48390478515625	0		-1.1128150634765626	-0.046826438903808595	0		-0.6652573852539062	-2.432538330078125	0		2.23232080078125	-1.5942750244140624	0		3.71637939453125	-0.54653125	0		4.4246826171875	0.21611141967773437	0		5.92907275390625	0.3862012023925781	0		-0.15178741455078126	5.93875634765625	0		
0.020078779220581055	-0.0016682809591293335	0		0.526436767578125	-2.484115966796875	0		-1.0355821533203124	-0.048624916076660155	0		-0.7041849365234375	-2.44590380859375	0		2.239689453125	-1.584221435546875	0		3.73688671875	-0.5256444702148437	0		4.4440205078125	0.22301034545898438	0		5.9293251953125	0.3863287658691406	0		-0.13539218139648437	5.94870751953125	0		
-0.02565030097961426	0.006031673908233642	0		0.5276315307617188	-2.4819990234375	0		-1.0294637451171875	-0.0535623664855957	0		-0.65673388671875	-2.4233515625	0		2.258849609375	-1.5853341064453126	0		3.736966552734375	-0.5335281982421874	0		4.439302734375	0.2311856689453125	0		5.9295078125	0.3864349365234375	0		-0.135185546875	5.94884033203125	0		
0.016332597732543946	-0.004373308181762695	0		0.5267039184570312	-2.48387548828125	0		-1.0424893798828125	-0.06428185272216796	0		-0.6956212158203126	-2.42175244140625	0		2.24686572265625	-1.5920831298828124	0		3.780057861328125	-0.5349655151367188	0		4.4542275390625	0.21609390258789063	0		5.938619140625	0.3864067687988281	0		-0.16812928771972657	5.94236328125	0		
-0.0626213035583496	-0.003301698923110962	0		0.524692138671875	-2.486759521484375	0		-1.04244970703125	-0.06418148803710938	0		-0.6586355590820312	-2.42511181640625	0		2.26588232421875	-1.5932374267578124	0		3.75603466796875	-0.5395966796875	0		4.45345556640625	0.2311746826171875	0		5.93377294921875	0.39552655029296874	0		-0.13398202514648438	5.948037109375	0		
0.02128546714782715	-0.009267070770263671	0		0.5246504516601562	-2.486689208984375	0		-1.11351904296875	-0.06722119903564452	0		-0.6998842163085938	-2.4415244140625	0		2.246860595703125	-1.59194384765625	0		3.775029541015625	-0.53778369140625	0		4.463419921875	0.23009698486328126	0		5.9296396484375	0.38661038208007814	0		-0.133966552734375	5.94811181640625	0		
-0.04765338897705078	0.0026405510902404784	0		0.5276132202148438	-2.481677001953125	0		-1.1055137939453126	-0.06025872039794922	0		-0.6429996337890626	-2.443171630859375	0		2.284641357421875	-1.6023768310546875	0		3.770784423828125	-0.55070751953125	0		4.45933056640625	0.22916964721679686	0		5.9295625	0.3866198425292969	0		-0.1631488800048828	5.93652685546875	0		
0.03220581817626953	6.842259764671325E-4	0		0.5294956665039062	-2.479671142578125	0		-1.1056365966796875	-0.06021489715576172	0		-0.6780891723632813	-2.43869775390625	0		2.269705810546875	-1.5861754150390626	0		3.805915283203125	-0.5301383056640625	0		4.48339501953125	0.24387298583984374	0		5.9345419921875	0.3945446472167969	0		-0.12916416931152344	5.94114111328125	0		
-0.03294955825805664	5.080109834671021E-4	0		0.5522383422851562	-2.486942626953125	0		-1.04093896484375	-0.072993408203125	0		-0.60937451171875	-2.44852978515625	0		2.2854814453125	-1.5913748779296875	0		3.770505126953125	-0.5507167358398437	0		4.4781640625	0.23691860961914063	0		5.92541015625	0.39562420654296876	0		-0.13318768310546875	5.947208984375	0		
0.019877859115600586	-0.0011477869749069213	0		0.524063232421875	-2.48659814453125	0		-1.0410955810546876	-0.07298277282714843	0		-0.64348681640625	-2.44310107421875	0		2.2922119140625	-1.5994788818359376	0		3.79932958984375	-0.5521069946289062	0		4.47801123046875	0.23688519287109375	0		5.92036962890625	0.4046368408203125	0		-0.13329310607910155	5.9472119140625	0		
0.020632036209106447	-0.009172353744506836	0		0.5327955932617188	-2.494726318359375	0		-1.0412425537109375	-0.07298650360107421	0		-0.6317294311523437	-2.4492568359375	0		2.2809658203125	-1.606373779296875	0		3.808140625	-0.5552635498046875	0		4.48785498046875	0.23571331787109376	0		5.9331142578125	0.3954130554199219	0		-0.16352316284179688	5.93657421875	0		
0.02264780044555664	0.0017769399881362915	0		0.5346787719726562	-2.492780517578125	0		-1.1083587646484374	-0.07216981506347656	0		-0.6518565673828125	-2.44802783203125	0		2.29485546875	-1.604591796875	0		3.8112138671875	-0.5393585815429688	0		4.4778251953125	0.24277780151367187	0		5.93398388671875	0.3943264770507813	0		-0.12953494262695311	5.94112744140625	0		
0.021663740158081056	0.009754317283630371	0		0.5256880493164062	-2.483707763671875	0		-1.1084429931640625	-0.07219530487060546	0		-0.6628592529296875	-2.4399208984375	0		2.287859130859375	-1.5965577392578125	0		3.8138271484375	-0.56345849609375	0		4.49255712890625	0.22752545166015625	0		5.932916015625	0.39525762939453124	0		-0.12957157897949217	5.94109423828125	0		
0.024423858642578126	-0.0063229379653930665	0		0.5235921020507812	-2.4867275390625	0		-1.102546875	-0.07730248260498047	0		-0.6520181274414063	-2.44809326171875	0		2.310643310546875	-1.6099007568359376	0		3.825943359375	-0.550677734375	0		4.49760595703125	0.23439138793945313	0		5.93287841796875	0.3951732177734375	0		-0.09549667358398438	5.946630859375	0		
0.010502609252929687	-1.9474700093269348E-4	0		0.5475267944335938	-2.4910751953125	0		-1.1025443115234375	-0.07734060668945313	0		-0.6500067749023437	-2.446159423828125	0		2.292661865234375	-1.60773779296875	0		3.81378173828125	-0.5635984497070312	0		4.49252490234375	0.22738088989257813	0		5.92899658203125	0.4041370849609375	0		-0.1295259246826172	5.941009765625	0		
-0.03750048828125	-0.003644270896911621	0		0.5236058349609375	-2.48682763671875	0		-1.141498779296875	-0.07689556884765625	0		-0.6459171752929688	-2.44125341796875	0		2.30468115234375	-1.608949462890625	0		3.81788330078125	-0.558720458984375	0		4.4925703125	0.22730703735351562	0		5.93314111328125	0.41200152587890626	0		-0.1635051727294922	5.93638671875	0		
0.031634910583496094	4.481639862060547E-4	0		0.53459326171875	-2.493014892578125	0		-1.1563946533203124	-0.07474903869628906	0		-0.6549403076171875	-2.44818408203125	0		2.286988037109375	-1.5897880859375	0		3.84560693359375	-0.58713818359375	0		4.49265087890625	0.227234130859375	0		5.933998046875	0.39390652465820314	0		-0.16339009094238283	5.93634033203125	0		
-0.02618796730041504	0.006127081871032715	0		0.5268258056640625	-2.481963134765625	0		-1.07325390625	-0.07282099151611328	0		-0.6287849731445313	-2.44354833984375	0		2.33094775390625	-1.60139404296875	0		3.844125244140625	-0.55418359375	0		4.4978505859375	0.23410162353515626	0		5.93822265625	0.402775146484375	0		-0.1291831512451172	5.940873046875	0		
0.02289723014831543	0.0014786969423294068	0		0.54985986328125	-2.489290283203125	0		-1.112112548828125	-0.07236504364013673	0		-0.6286615600585937	-2.443581787109375	0		2.28721728515625	-1.5898980712890625	0		3.829887451171875	-0.584068359375	0		4.50690380859375	0.2269261474609375	0		5.9203779296875	0.40392462158203124	0		-0.12900666809082031	5.94083642578125	0		
